<?xml version="1.0" ?><svg id="Layer_1" style="enable-background:new 0 0 1729.1 1006.5;" version="1.1" viewBox="0 0 1729.1 1006.5" xml:space="preserve" xmlns="http://www.w3.org/2000/svg" xmlns:serif="http://www.serif.com/" xmlns:xlink="http://www.w3.org/1999/xlink"><style type="text/css">
	.st0{fill-rule:evenodd;clip-rule:evenodd;fill:#231F20;}
</style><g><path class="st0" d="M78,244.9v516.9h71.2V511.3h36.2v250.5h71.2V244.9h-71.2v214.2h-36.2V244.9H78z"/><path class="st0" d="M424.7,244.9H292.2v516.9h132.4v-52.1h-61.2V511.3h61.2v-52.1h-61.2V297h61.2V244.9z"/><path class="st0" d="M527,459.1h18.5c10.2,0,15.5-7.5,15.5-17.1V312.5c0-9-5-15.4-13.2-15.4H527V459.1z M593.6,482.3   c6.6,4.1,40.4,15.5,40.2,56.4v162.2c0,28.1,6.3,54.4,10.6,61h-71.2c-7.2-11.9-13.2-38.6-13.2-67.9V538.9c0-18.3-3.8-27.7-13.8-27.7   H527v250.5h-71.2V244.9h106.8c45.8,0,72.2,26.3,72.2,70.9v98.6C634.8,474,596.2,478.6,593.6,482.3z"/><path class="st0" d="M731.4,568.6h-71.9v114.1c0,70.8,38.7,81.8,93,81.8c58.7,0,89-26.8,89-89.7v-98.2   c0-81.1-107.5-122.6-107.5-167.5v-99.9c0-13.2,7.4-16.3,15.7-16.3c7.9,0,14.7,2.5,14.7,16.3V419h71.2V315.4   c0-54.5-29.7-73.8-86.4-73.8c-62,0-89,27.7-89,79.1v87.7c0,90.5,107.5,122.6,107.5,174.1v109.4c0,13.8-8.2,17.8-16.5,17.8   c-8.9,0-19.8-2-19.8-18.1V568.6z"/><path class="st0" d="M864,244.9v516.9h71.2l0-250.5h36.2v250.5h71.2V244.9h-71.2v214.2h-36.2l0-214.2H864z"/><path class="st0" d="M1210.6,244.9h-132.4v516.9h132.4v-52.1h-61.2V511.3h61.2v-52.1h-61.2V297h61.2V244.9z"/><path class="st0" d="M1344,511.3v250.5h-71.2V511.3l-60.1-266.4h71.2l30.3,175.4l34.3-175.4h52.7L1344,511.3z"/><path class="st0" d="M1465.8,244.9l-27.7,102.9h-42.9l22.4-102.9H1465.8z"/><path class="st0" d="M1533.1,568.6h-71.9v114.1c0,70.8,38.7,81.8,93,81.8c58.7,0,89-26.8,89-89.7v-98.2   c0-81.1-107.5-122.6-107.5-167.5v-99.9c0-13.2,7.4-16.3,15.7-16.3c7.9,0,14.7,2.5,14.7,16.3V419h71.2V315.4   c0-54.5-29.7-73.8-86.4-73.8c-62,0-89,27.7-89,79.1v87.7c0,90.5,107.5,122.6,107.5,174.1v109.4c0,13.8-8.2,17.8-16.5,17.8   c-8.9,0-19.8-2-19.8-18.1V568.6z"/><path class="st0" d="M1409.7,718.6c11.1,0,19.6,8.8,19.6,20.3c0,11.7-8.6,20.5-19.6,20.5c-11.2,0-19.7-8.8-19.7-20.5   C1389.9,727.4,1398.5,718.6,1409.7,718.6v-3.5c-13.1,0-24.1,10.3-24.1,23.8c0,13.7,11,24,24.1,24c13,0,24-10.3,24-24   c0-13.5-10.9-23.8-24-23.8V718.6z"/><path class="st0" d="M1404.7,728.5h5.7c2.9,0,6.1,0.6,6.1,4.3c0,4.4-3.5,4.6-7.3,4.6h-4.5v3.5h4.6l7.6,12h4.7l-8-12.3   c4.2-0.4,7.3-2.6,7.3-7.6c0-5.4-3.1-8-9.8-8h-10.8v27.9h4.3V728.5z"/></g></svg>