<?xml version="1.0" ?><svg viewBox="0 0 64 64" xmlns="http://www.w3.org/2000/svg"><defs><style>.cls-1{fill:#f8e157;}.cls-1,.cls-10,.cls-12,.cls-2,.cls-4,.cls-9{fill-rule:evenodd;}.cls-2{fill:#4f9ff6;}.cls-12,.cls-3{fill:#fcbf4a;}.cls-4{fill:#3f76d3;}.cls-5{fill:#94a1b2;}.cls-6{fill:#f64f7d;}.cls-7{fill:#80ee98;}.cls-8{fill:#e43b74;}.cls-9{fill:#5e697b;}.cls-10{fill:#57cc98;}.cls-11{fill:#c8f9cc;}</style></defs><g id="Profit"><path class="cls-1" d="M27.52,26.39H20.69a1.42,1.42,0,0,0-1,.4,1.38,1.38,0,0,0-.4,1V36h8.21Z"/><path class="cls-2" d="M35.74,22a1.38,1.38,0,0,0-1.38-1.38H28.9A1.38,1.38,0,0,0,27.52,22V36h8.22Z"/><rect class="cls-3" height="9.56" width="3.59" x="23.93" y="26.39"/><path class="cls-4" d="M35.74,22a1.38,1.38,0,0,0-1.38-1.38H32.15V36h3.59Z"/><rect class="cls-5" height="3.93" rx="1.38" width="35.76" x="13.36" y="34.96"/><path class="cls-6" d="M44.5,4.66a1,1,0,0,0-1.54,0L37,12a1,1,0,0,0,.76,1.61h1.82V25.18a1.4,1.4,0,0,0,1.4,1.4,1.37,1.37,0,0,0,1.34-1.4v-2a1.4,1.4,0,0,1,1.4-1.4,1.37,1.37,0,0,1,1.34,1.4v5.36a1.4,1.4,0,0,0,1.4,1.4,1.38,1.38,0,0,0,1.34-1.4V13.59c1.24-.11,2.28.32,2.7-.56a1,1,0,0,0-.12-1Z"/><rect class="cls-7" height="17.68" rx="1.38" width="35.03" x="13.72" y="42.03"/><path class="cls-8" d="M44.5,4.66a1,1,0,0,0-1.54,0l-.67.83,6.55,8.1c.41-.06,1.33.23,1.7-.56a1,1,0,0,0-.12-1ZM45,14.73v7.82a1.41,1.41,0,0,1,.14.62v5.36a1.4,1.4,0,0,0,1.4,1.4,1.39,1.39,0,0,0,1.34-1.4V13.59H46.1A1.14,1.14,0,0,0,45,14.73Z"/><path class="cls-9" d="M49.12,36.33A1.37,1.37,0,0,0,47.74,35H40.88v3.93h6.86a1.38,1.38,0,0,0,1.38-1.38Z"/><path class="cls-10" d="M48.76,43.41A1.4,1.4,0,0,0,47.38,42H40.71V59.71h6.67a1.41,1.41,0,0,0,1-.4,1.39,1.39,0,0,0,.41-1Z"/><path class="cls-11" d="M18,48a.87.87,0,0,0-.67.85c-.05,1.06-.05,3-.05,4.07a.93.93,0,0,0,.7.9,2.28,2.28,0,0,1,1.66,1.59.87.87,0,0,0,.85.66c3.46.06,18,.06,21.42.06a.92.92,0,0,0,.9-.71,2.3,2.3,0,0,1,1.59-1.65.89.89,0,0,0,.67-.86c0-1.06,0-3,0-4.06a.94.94,0,0,0-.71-.91,2.29,2.29,0,0,1-1.65-1.58.87.87,0,0,0-.85-.67c-3.46-.06-18-.06-21.42-.06a.93.93,0,0,0-.9.71A2.32,2.32,0,0,1,18,48Z"/><path class="cls-7" d="M40.71,45.62v10.5H42a.92.92,0,0,0,.9-.71,2.29,2.29,0,0,1,1.59-1.65.89.89,0,0,0,.67-.86c0-1.06,0-3,0-4.06a.93.93,0,0,0-.7-.91,2.29,2.29,0,0,1-1.66-1.58.87.87,0,0,0-.85-.67C41.38,45.62,40.71,45.62,40.71,45.62Z"/><path class="cls-12" d="M30.19,51.87h2.1a1,1,0,0,0,0-2h-2.1a1,1,0,0,0,0,2Z"/></g></svg>